<?xml version="1.0" encoding="UTF-8"?>
<svg id="svg" version="1.1" xmlns="http://www.w3.org/2000/svg" style="display: block;" viewBox="0 0 800 600"><path d="M0,0 L10,0 L17,3 L22,8 L23,11 L23,22 L20,27 L17,29 L17,69 L24,75 L25,78 L44,86 L55,94 L64,105 L71,119 L74,128 L77,145 L77,172 L76,176 L85,177 L99,180 L109,185 L117,193 L121,202 L123,213 L122,226 L118,239 L112,247 L105,253 L89,260 L86,262 L97,270 L110,281 L117,288 L127,301 L131,310 L130,318 L126,322 L134,337 L140,355 L141,359 L141,371 L138,376 L135,378 L131,378 L133,390 L139,382 L149,375 L157,372 L160,372 L160,362 L162,345 L167,335 L179,321 L186,315 L190,310 L192,309 L196,300 L202,295 L208,293 L218,293 L226,289 L231,288 L245,288 L253,291 L260,298 L263,308 L263,315 L260,323 L255,328 L257,332 L260,336 L261,339 L261,351 L257,363 L252,369 L246,372 L244,380 L237,393 L243,395 L253,401 L261,410 L264,420 L264,438 L260,456 L259,459 L263,461 L264,463 L264,472 L258,487 L248,506 L249,511 L250,513 L249,524 L243,540 L230,565 L228,568 L-289,568 L-289,559 L-283,537 L-286,533 L-287,524 L-283,507 L-269,473 L-258,452 L-243,430 L-238,423 L-241,420 L-241,411 L-234,403 L-221,390 L-209,381 L-198,374 L-188,369 L-187,338 L-185,326 L-190,325 L-192,322 L-192,309 L-187,297 L-180,286 L-169,272 L-156,260 L-140,249 L-128,242 L-118,237 L-94,229 L-86,228 L-86,218 L-83,187 L-80,168 L-77,150 L-71,127 L-65,112 L-57,101 L-45,89 L-35,83 L-18,77 L-14,71 L-11,68 L-9,68 L-6,26 L-10,21 L-10,10 L-6,3 Z " transform="translate(384,32)" style="fill: #565758;"/><path d="M0,0 L6,1 L22,11 L32,19 L42,28 L51,38 L58,48 L58,53 L57,54 L50,54 L44,50 L40,45 L42,49 L51,60 L60,75 L66,90 L68,98 L68,109 L64,110 L59,106 L56,99 L54,91 L52,91 L57,107 L59,117 L60,131 L60,117 L65,118 L67,129 L73,121 L83,114 L91,111 L94,111 L94,101 L96,84 L101,74 L113,60 L120,54 L124,49 L126,48 L130,39 L136,34 L142,32 L152,32 L160,28 L165,27 L179,27 L187,30 L194,37 L197,47 L197,54 L194,62 L189,67 L191,71 L194,75 L195,78 L195,90 L191,102 L186,108 L180,111 L178,119 L171,132 L177,134 L187,140 L195,149 L198,159 L198,177 L194,195 L193,198 L197,200 L198,202 L198,211 L192,226 L182,245 L183,250 L184,252 L183,263 L177,279 L164,304 L162,307 L-56,307 L-57,282 L-60,259 L-61,251 L-52,237 L-44,227 L-42,227 L-40,223 L-30,214 L-14,202 L-7,196 L-4,199 L-4,201 L5,199 L16,191 L26,180 L31,173 L34,175 L39,175 L46,169 L54,157 L58,146 L58,143 L54,154 L48,165 L43,171 L39,174 L34,173 L33,168 L37,159 L35,159 L33,167 L23,182 L10,195 L2,199 L-3,199 L-4,198 L-4,192 L2,182 L3,179 L1,179 L-1,185 L-7,194 L-14,201 L-26,210 L-40,222 L-47,229 L-57,242 L-61,248 L-63,245 L-71,221 L-77,209 L-75,204 L-69,194 L-65,189 L-60,180 L-51,168 L-44,155 L-41,148 L-36,131 L-34,123 L-33,103 L-35,103 L-35,109 L-40,109 L-41,89 L-44,85 L-44,77 L-39,43 L-38,37 L-21,36 L-14,34 L-12,19 L-10,2 Z " transform="translate(450,293)" style="fill: #595751;"/><path d="M0,0 L5,0 L5,13 L2,41 L-2,76 L-4,98 L-6,114 L-9,110 L-12,99 L-12,93 L-14,93 L-11,108 L-3,124 L2,133 L10,144 L19,155 L22,158 L22,160 L26,162 L32,166 L32,168 L34,168 L34,170 L38,172 L46,181 L50,187 L49,190 L44,190 L36,182 L36,180 L34,180 L40,188 L48,194 L55,202 L66,217 L73,229 L82,248 L87,261 L92,279 L96,304 L97,319 L97,333 L-195,333 L-193,319 L-186,297 L-179,282 L-176,276 L-178,276 L-180,282 L-185,293 L-187,296 L-192,295 L-191,282 L-182,257 L-173,237 L-163,219 L-150,200 L-141,189 L-133,179 L-127,172 L-134,178 L-141,181 L-146,181 L-145,177 L-128,160 L-116,151 L-103,143 L-97,140 L-94,140 L-90,156 L-86,163 L-82,163 L-80,158 L-78,158 L-72,170 L-65,181 L-56,192 L-54,193 L-54,195 L-50,197 L-43,202 L-38,203 L-37,200 L-32,205 L-25,212 L-13,221 L6,232 L14,232 L13,224 L18,226 L34,238 L44,247 L49,251 L56,259 L67,273 L63,266 L55,256 L41,242 L24,229 L13,221 L7,218 L1,213 L8,221 L12,225 L13,231 L7,231 L-8,223 L-22,213 L-35,200 L-46,185 L-46,183 L-48,183 L-39,196 L-39,201 L-44,200 L-53,193 L-63,182 L-72,168 L-80,151 L-81,140 L-83,140 L-82,145 L-82,160 L-83,162 L-87,160 L-91,150 L-92,141 L-92,103 L-88,83 L-85,76 L-81,68 L-88,78 L-94,84 L-98,84 L-98,77 L-90,61 L-83,51 L-74,40 L-64,31 L-49,20 L-29,9 L-13,3 Z " transform="translate(296,267)" style="fill: #FBFBFB;"/><path d="M0,0 L21,0 L38,4 L54,12 L55,15 L60,17 L67,26 L75,42 L78,56 L79,61 L79,89 L78,96 L66,95 L45,91 L31,89 L14,86 L-5,86 L-26,92 L-39,100 L-45,107 L-48,114 L-49,123 L-49,135 L-46,147 L-41,156 L-35,161 L-22,166 L12,168 L35,172 L61,179 L63,180 L63,191 L62,206 L60,210 L54,213 L38,213 L38,205 L49,206 L52,207 L52,205 L37,203 L15,198 L-7,196 L-39,196 L-38,197 L-12,197 L-13,211 L-14,212 L-41,212 L-42,235 L-16,235 L-16,241 L-14,234 L-13,218 L-12,207 L-11,197 L7,198 L14,199 L14,208 L15,200 L30,202 L37,204 L36,215 L32,242 L31,247 L29,263 L19,263 L32,266 L33,268 L33,287 L21,286 L-16,282 L-20,281 L-37,280 L-51,278 L-73,276 L-81,275 L-83,272 L-83,261 L-81,245 L-80,229 L-78,213 L-77,198 L-76,197 L-75,181 L-72,153 L-68,113 L-64,83 L-60,63 L-53,39 L-49,31 L-42,22 L-37,17 L-28,9 L-17,4 L-12,2 Z " transform="translate(375,115)" style="fill: #B5BBC3;"/><path d="M0,0 L3,0 L3,14 L1,19 L-2,18 L-2,16 L-4,16 L2,24 L11,34 L19,40 L33,48 L45,52 L51,53 L73,53 L73,51 L69,52 L50,52 L48,51 L49,44 L53,31 L62,21 L63,19 L72,21 L84,27 L91,34 L94,41 L94,60 L92,70 L85,93 L87,93 L89,89 L91,87 L94,87 L94,94 L85,114 L75,132 L67,145 L69,145 L71,141 L77,136 L80,136 L79,145 L74,158 L59,187 L57,190 L-45,190 L-45,176 L-48,163 L-48,156 L-47,152 L-46,102 L-44,81 L-42,66 L-38,55 L-36,54 L-36,63 L-34,63 L-34,47 L-29,26 L-24,16 L-15,6 L-8,2 Z " transform="translate(547,410)" style="fill: #FBFCFB;"/><path d="M0,0 L6,1 L22,11 L32,19 L42,28 L51,38 L58,48 L58,53 L57,54 L50,54 L44,50 L40,45 L42,49 L51,60 L60,75 L66,90 L68,98 L68,109 L64,110 L59,106 L56,99 L54,91 L52,91 L57,107 L59,117 L59,136 L56,150 L48,165 L43,171 L39,174 L34,173 L33,168 L37,159 L35,159 L33,167 L23,182 L10,195 L2,199 L-3,199 L-4,198 L-4,192 L2,182 L3,179 L1,179 L-1,185 L-7,194 L-14,201 L-26,210 L-40,222 L-47,229 L-57,242 L-61,248 L-63,245 L-71,221 L-77,209 L-75,204 L-69,194 L-65,189 L-60,180 L-51,168 L-44,155 L-41,148 L-36,131 L-34,123 L-33,103 L-35,103 L-35,109 L-40,109 L-41,89 L-44,85 L-44,77 L-39,43 L-38,37 L-21,36 L-14,34 L-12,19 L-10,2 Z " transform="translate(450,293)" style="fill: #FBFBFB;"/><path d="M0,0 L18,0 L49,5 L57,7 L70,9 L92,13 L110,16 L118,20 L125,27 L128,33 L130,42 L130,51 L127,63 L121,72 L113,78 L94,86 L75,91 L65,91 L44,85 L31,82 L3,79 L-15,78 L-26,75 L-35,69 L-41,57 L-43,51 L-43,33 L-40,22 L-34,14 L-20,6 L-5,1 Z " transform="translate(370,202)" style="fill: #060607;"/><path d="M0,0 L4,1 L6,3 L5,16 L4,21 L0,25 L-3,34 L-6,53 L-8,72 L-9,121 L-11,125 L-15,112 L-21,93 L-23,76 L-23,88 L-18,105 L-10,131 L-7,146 L-7,158 L-8,160 L-114,160 L-115,135 L-118,112 L-119,104 L-110,90 L-102,80 L-100,80 L-98,76 L-88,67 L-72,55 L-65,49 L-62,52 L-62,54 L-53,52 L-42,44 L-32,33 L-27,26 L-24,28 L-19,28 L-12,22 L-4,10 Z " transform="translate(508,440)" style="fill: #FBFBFB;"/><path d="M0,0 L9,0 L46,4 L58,6 L102,10 L119,12 L119,21 L115,38 L107,59 L104,66 L80,65 L52,63 L43,51 L33,41 L23,33 L11,19 L1,4 Z " transform="translate(296,392)" style="fill: #D6DFE3;"/><path d="M0,0 L31,0 L30,14 L29,15 L2,15 L1,38 L27,38 L27,44 L29,37 L30,21 L31,10 L32,0 L50,1 L57,2 L57,11 L58,3 L73,5 L80,7 L79,18 L75,45 L74,50 L72,66 L55,66 L18,60 L-6,56 L-15,52 L-21,45 L-23,40 L-23,26 L-19,16 L-10,6 L-3,1 Z " transform="translate(332,312)" style="fill: #4C4C34;"/><path d="M0,0 L19,0 L36,3 L53,6 L83,11 L84,8 L85,12 L89,14 L75,13 L66,11 L52,9 L37,6 L18,3 L0,3 L-15,7 L-31,15 L-36,20 L-40,26 L-42,35 L-42,53 L-37,66 L-33,72 L-24,77 L-15,79 L14,81 L35,84 L56,89 L65,92 L75,92 L84,90 L88,91 L86,91 L86,93 L76,95 L70,95 L68,123 L66,127 L59,130 L42,130 L41,141 L37,170 L37,178 L40,182 L40,202 L45,202 L45,196 L47,196 L47,216 L42,235 L38,244 L35,251 L30,261 L19,276 L13,286 L7,295 L4,300 L6,306 L11,317 L16,332 L19,340 L29,326 L40,314 L50,305 L63,295 L73,286 L79,277 L81,272 L83,272 L82,277 L77,285 L77,291 L84,290 L91,286 L103,274 L113,258 L115,252 L117,252 L116,257 L114,261 L115,266 L120,265 L123,264 L125,260 L131,251 L136,240 L138,233 L139,233 L138,242 L134,251 L127,262 L119,269 L114,269 L111,267 L101,280 L94,287 L85,293 L76,294 L73,290 L61,300 L48,310 L39,318 L32,326 L22,340 L20,344 L21,352 L24,375 L24,400 L23,400 L21,371 L17,346 L10,322 L2,304 L-5,291 L-14,277 L-22,267 L-29,259 L-37,253 L-40,249 L-40,247 L-38,247 L-31,255 L-30,256 L-25,256 L-27,251 L-35,241 L-40,237 L-40,235 L-42,235 L-42,233 L-47,231 L-52,227 L-61,216 L-71,203 L-77,194 L-85,176 L-87,171 L-88,160 L-86,160 L-83,175 L-81,179 L-78,158 L-76,136 L-73,108 L-71,104 L-72,128 L-74,144 L-75,160 L-77,176 L-77,187 L-76,189 L-60,191 L-36,193 L-32,194 L-15,195 L0,197 L33,201 L38,202 L37,181 L24,179 L22,177 L30,177 L34,178 L35,162 L36,158 L34,157 L37,157 L38,146 L41,124 L42,119 L35,118 L20,115 L20,123 L19,128 L18,128 L18,118 L19,114 L0,113 L-6,112 L-6,122 L-7,127 L-2,127 L-2,128 L-7,128 L-8,141 L-9,149 L-4,149 L-4,150 L-10,150 L-11,163 L-12,163 L-12,154 L-11,150 L-37,150 L-37,156 L-38,156 L-38,142 L-36,127 L-9,126 L-8,115 L-7,112 L-33,112 L-34,116 L-34,112 L-36,111 L-34,110 L-2,110 L20,112 L42,117 L55,119 L57,120 L57,122 L43,120 L43,128 L59,127 L65,125 L66,121 L68,95 L52,91 L30,86 L17,84 L-17,82 L-32,76 L-39,68 L-43,60 L-45,50 L-45,38 L-43,26 L-37,17 L-30,11 L-18,5 Z M-74,192 L-72,197 L-65,208 L-56,219 L-48,228 L-38,236 L-29,245 L-22,255 L24,258 L30,258 L40,233 L44,218 L45,213 L45,204 L-4,199 L-24,197 L-36,195 L-65,192 Z " transform="translate(370,200)" style="fill: #373A3C;"/><path d="M0,0 L18,0 L49,5 L57,7 L70,9 L92,13 L110,16 L118,20 L125,27 L128,33 L130,42 L130,51 L127,63 L121,72 L113,78 L94,86 L75,91 L65,91 L44,85 L31,82 L3,79 L-15,78 L-26,75 L-35,69 L-41,57 L-43,51 L-43,33 L-40,22 L-34,14 L-20,6 L-5,1 Z M7,6 L-2,9 L-12,18 L-17,28 L-18,31 L-18,43 L-13,53 L-5,60 L19,67 L32,70 L65,76 L90,78 L105,78 L115,73 L121,65 L124,56 L124,40 L120,30 L112,23 L110,23 L110,21 L98,18 L85,15 L64,12 L39,8 L22,6 Z " transform="translate(370,202)" style="fill: #D3DADF;"/><path d="M0,0 L14,0 L22,6 L25,11 L27,17 L27,30 L23,36 L14,44 L10,46 L-6,45 L-25,42 L-30,35 L-29,28 L-26,19 L-25,8 L-20,5 L-7,1 Z " transform="translate(436,230)" style="fill: #F6F4B6;"/><path d="M0,0 L5,1 L20,9 L25,11 L25,13 L30,14 L41,20 L42,22 L42,37 L38,46 L36,46 L34,50 L30,53 L23,53 L-2,46 L-8,41 L-12,34 L-13,30 L-13,20 L-9,10 L-6,5 L-4,5 L-4,3 Z " transform="translate(367,214)" style="fill: #F7F6B7;"/><path d="M0,0 L19,0 L36,3 L53,6 L83,11 L84,8 L85,12 L89,14 L75,13 L66,11 L52,9 L37,6 L18,3 L0,3 L-15,7 L-31,15 L-36,20 L-40,26 L-42,35 L-42,53 L-37,66 L-33,72 L-24,77 L-15,79 L14,81 L35,84 L56,89 L65,92 L75,92 L84,90 L88,91 L86,91 L86,93 L76,95 L70,95 L68,123 L66,127 L59,130 L42,130 L41,141 L37,170 L37,178 L40,182 L40,196 L39,196 L37,181 L24,179 L22,177 L30,177 L34,178 L35,162 L36,158 L34,157 L37,157 L38,146 L41,124 L42,119 L35,118 L20,115 L20,123 L19,128 L18,128 L18,118 L19,114 L0,113 L-6,112 L-6,122 L-7,127 L-2,127 L-2,128 L-7,128 L-8,141 L-9,149 L-4,149 L-4,150 L-10,150 L-11,163 L-12,163 L-12,154 L-11,150 L-37,150 L-37,156 L-38,156 L-38,142 L-36,127 L-9,126 L-8,115 L-7,112 L-33,112 L-34,116 L-34,112 L-36,111 L-34,110 L-2,110 L20,112 L42,117 L55,119 L57,120 L57,122 L43,120 L43,128 L59,127 L65,125 L66,121 L68,95 L52,91 L30,86 L17,84 L-17,82 L-32,76 L-39,68 L-43,60 L-45,50 L-45,38 L-43,26 L-37,17 L-30,11 L-18,5 Z " transform="translate(370,200)" style="fill: #3D3D2D;"/><path d="M0,0 L2,0 L10,10 L23,19 L38,25 L46,26 L67,27 L62,36 L53,47 L47,54 L37,54 L24,51 L15,47 L5,40 L2,37 L0,22 Z " transform="translate(551,388)" style="fill: #B6BEC6;"/><path d="M0,0 L6,0 L10,3 L6,11 L6,19 L10,25 L12,27 L16,28 L27,28 L40,24 L45,19 L48,17 L46,22 L41,26 L26,31 L21,32 L20,36 L22,36 L22,34 L25,32 L36,32 L36,33 L27,34 L25,35 L33,40 L37,46 L37,58 L33,65 L40,63 L45,54 L46,57 L41,65 L34,68 L33,66 L30,66 L32,62 L34,59 L34,47 L30,41 L27,39 L17,39 L16,44 L16,52 L10,61 L1,65 L6,69 L21,70 L21,72 L31,71 L31,73 L18,73 L6,72 L0,68 L-2,64 L-7,62 L-9,58 L-16,58 L-17,62 L-19,63 L-29,63 L-34,59 L-38,51 L-38,49 L-40,49 L-39,44 L-37,42 L-35,51 L-31,58 L-26,60 L-18,60 L-19,58 L-24,55 L-29,50 L-30,46 L-30,33 L-26,29 L-27,33 L-27,46 L-24,52 L-19,55 L-12,56 L-15,48 L-15,40 L-10,30 L-7,27 L-2,26 L-7,23 L-17,23 L-21,24 L-16,19 L-16,21 L-10,21 L-11,16 L-13,15 L-11,14 L-8,5 L-5,5 L-8,11 L-8,20 L-1,23 L1,25 L1,28 L6,30 L11,35 L12,38 L17,36 L19,31 L12,30 L7,26 L3,19 L3,9 L7,2 L0,1 Z " transform="translate(592,331)" style="fill: #343429;"/><path d="M0,0 L31,0 L30,14 L29,15 L2,15 L1,30 L0,37 L-5,38 L-1,39 L-2,54 L-8,53 L-11,53 L-16,51 L-21,45 L-23,40 L-23,26 L-19,16 L-10,6 L-3,1 Z " transform="translate(332,312)" style="fill: #484733;"/><path d="M0,0 L1,0 L3,7 L12,17 L14,18 L14,20 L18,22 L27,27 L41,31 L47,32 L69,33 L69,31 L71,32 L67,38 L66,36 L46,35 L35,33 L21,27 L9,18 L2,10 L2,8 L0,8 L2,41 L4,46 L13,53 L23,57 L27,59 L37,61 L47,61 L58,48 L62,44 L60,49 L51,60 L48,67 L44,81 L69,81 L69,83 L65,84 L47,84 L34,81 L18,73 L10,67 L0,58 L-8,48 L-8,46 L-6,46 L-3,49 L-2,44 L-1,30 L-6,30 L-2,28 L-1,5 Z " transform="translate(551,380)" style="fill: #353A3E;"/><path d="M0,0 L5,1 L3,5 L-7,18 L-20,38 L-31,59 L-37,73 L-45,96 L-46,109 L-42,109 L-38,100 L-33,90 L-31,90 L-32,94 L-39,110 L-43,120 L-48,138 L-50,147 L-56,147 L-56,138 L-50,116 L-53,112 L-54,103 L-50,86 L-36,52 L-25,31 L-10,9 L-5,2 L-2,1 Z " transform="translate(151,453)" style="fill: #6B6B6B;"/><path d="M0,0 L16,0 L24,7 L26,12 L26,19 L22,26 L16,30 L5,33 L-6,33 L-11,31 L-16,25 L-17,23 L-17,15 L-13,7 L-3,1 Z " transform="translate(614,327)" style="fill: #B6BEC6;"/><path d="M0,0 L1,0 L2,8 L6,7 L6,20 L2,35 L6,37 L7,39 L7,48 L1,63 L-9,82 L-8,87 L-7,89 L-8,100 L-14,116 L-27,141 L-29,144 L-37,144 L-35,139 L-19,108 L-15,95 L-14,90 L-20,93 L-25,99 L-27,99 L-25,94 L-14,75 L-6,59 L-1,48 L0,41 L-5,44 L-7,47 L-9,47 L-7,38 L-2,21 Z " transform="translate(641,456)" style="fill: #5C5C5B;"/><path d="M0,0 L13,1 L24,2 L47,3 L51,5 L41,19 L33,31 L27,41 L24,41 L12,22 L5,13 L-3,4 L-3,2 Z " transform="translate(347,456)" style="fill: #B2B9BF;"/><path d="M0,0 L2,0 L6,8 L6,10 L10,12 L11,13 L23,13 L24,9 L31,9 L36,14 L41,19 L46,22 L71,24 L70,29 L68,33 L46,33 L32,30 L22,26 L13,20 L13,18 L9,16 L1,7 Z " transform="translate(552,380)" style="fill: #B4BCC4;"/><path d="M0,0 L6,0 L15,6 L20,14 L20,22 L15,30 L9,33 L3,33 L-4,27 L-7,19 L-7,12 L-4,3 Z " transform="translate(586,360)" style="fill: #B5BDC6;"/><path d="M0,0 L10,0 L16,5 L18,9 L18,21 L13,27 L5,31 L0,32 L-11,32 L-17,27 L-13,25 L-6,21 L-2,14 L-2,2 Z " transform="translate(609,369)" style="fill: #B6BDC7;"/><path d="M0,0 L1,0 L4,18 L8,25 L10,26 L10,4 L12,4 L15,17 L23,34 L32,47 L43,59 L50,64 L54,65 L52,58 L45,49 L45,47 L47,47 L57,61 L66,71 L76,80 L94,91 L100,94 L106,95 L103,88 L94,79 L94,77 L98,79 L103,83 L110,87 L126,99 L137,108 L152,123 L161,136 L160,138 L147,122 L140,114 L132,107 L117,95 L108,89 L108,91 L108,96 L107,97 L99,97 L83,88 L72,80 L60,69 L56,65 L55,67 L48,66 L39,59 L39,57 L36,56 L25,42 L17,29 L15,22 L13,22 L12,27 L7,28 L2,20 L0,13 L-1,1 Z " transform="translate(203,403)" style="fill: #505050;"/><path d="M0,0 L7,6 L17,12 L28,16 L45,19 L44,29 L42,35 L33,33 L17,25 L6,16 L-2,8 L-1,1 Z " transform="translate(551,425)" style="fill: #94A2AD;"/><path d="M0,0 L26,0 L24,20 L-1,20 L-1,7 Z " transform="translate(335,328)" style="fill: #F7F5B7;"/><path d="M0,0 L10,0 L21,1 L24,2 L22,23 L11,22 L-1,20 L-1,5 Z " transform="translate(360,351)" style="fill: #F5F4B8;"/><path d="M0,0 L10,0 L23,2 L23,11 L22,22 L8,21 L-2,20 L-1,4 Z " transform="translate(363,329)" style="fill: #F5F4B9;"/><path d="M0,0 L10,0 L15,3 L16,5 L9,7 L4,15 L3,18 L3,26 L5,31 L5,34 L-2,34 L-8,30 L-11,24 L-11,11 L-5,3 Z " transform="translate(575,353)" style="fill: #ECE47C;"/><path d="M0,0 L26,0 L24,20 L13,19 L-1,17 Z " transform="translate(333,350)" style="fill: #F2F1B6;"/><path d="M0,0 L7,1 L6,11 L4,18 L3,34 L1,34 L0,26 L-4,37 L-7,59 L-8,73 L-9,123 L-10,127 L-10,134 L-7,147 L-7,158 L-8,161 L-10,161 L-10,147 L-14,129 L-22,104 L-26,89 L-26,77 L-24,76 L-22,94 L-15,116 L-13,123 L-12,122 L-11,73 L-7,39 L-4,28 L0,22 L2,22 L3,4 Z " transform="translate(510,439)" style="fill: #484848;"/><path d="M0,0 L19,0 L36,3 L53,6 L83,11 L84,8 L85,12 L89,14 L75,13 L66,11 L52,9 L37,6 L18,3 L0,3 L-15,7 L-31,15 L-36,20 L-40,26 L-42,35 L-42,53 L-37,66 L-33,72 L-24,77 L-15,79 L3,80 L3,81 L-17,82 L-32,76 L-39,68 L-43,60 L-45,50 L-45,38 L-43,26 L-37,17 L-30,11 L-18,5 Z " transform="translate(370,200)" style="fill: #383D43;"/><path d="M0,0 L6,1 L7,2 L7,49 L-4,49 L-3,27 L-2,23 Z " transform="translate(386,54)" style="fill: #96A2AD;"/><path d="M0,0 L11,1 L21,4 L20,19 L19,24 L11,23 L-1,21 L-1,8 Z " transform="translate(385,354)" style="fill: #F4F3B8;"/><path d="M0,0 L7,0 L7,13 L6,20 L-9,22 L-15,22 L-15,9 L-12,2 Z " transform="translate(326,329)" style="fill: #F4F2B8;"/><path d="M0,0 L6,1 L21,5 L21,14 L19,24 L10,23 L9,22 L-2,20 Z " transform="translate(388,332)" style="fill: #F4F2B8;"/><path d="M0,0 L2,1 L0,4 L-5,7 L-7,7 L-7,9 L-9,9 L-11,14 L-15,24 L-15,34 L-12,42 L-7,47 L-2,50 L20,56 L27,56 L32,52 L33,50 L35,50 L38,41 L39,31 L41,29 L41,39 L38,48 L37,55 L41,61 L68,65 L76,65 L80,64 L77,68 L65,68 L44,64 L32,62 L19,59 L-5,52 L-13,45 L-18,35 L-18,23 L-14,13 L-5,3 Z " transform="translate(370,210)" style="fill: #272719;"/><path d="M0,0 L6,1 L6,2 L-1,4 L-4,10 L-5,14 L-5,21 L-1,30 L4,34 L13,33 L18,28 L22,17 L23,17 L23,25 L17,34 L8,38 L13,42 L28,43 L28,45 L38,44 L38,46 L25,46 L13,45 L7,41 L5,37 L0,35 L-2,31 L-9,31 L-10,35 L-12,36 L-22,36 L-27,32 L-31,24 L-31,22 L-33,22 L-32,17 L-30,15 L-28,24 L-24,31 L-19,33 L-11,33 L-12,31 L-17,28 L-22,23 L-23,19 L-23,6 L-19,2 L-20,6 L-20,19 L-17,25 L-12,28 L-5,29 L-8,21 L-8,13 L-3,3 Z " transform="translate(585,358)" style="fill: #35331B;"/><path d="M0,0 L26,0 L25,14 L-1,14 L-1,4 Z " transform="translate(337,312)" style="fill: #F5F3B7;"/><path d="M0,0 L18,1 L25,2 L24,12 L23,17 L15,17 L12,16 L-1,15 Z " transform="translate(364,312)" style="fill: #F0EFB6;"/><path d="M0,0 L7,1 L5,6 L4,8 L4,18 L9,26 L15,29 L19,30 L17,36 L12,37 L9,33 L9,31 L5,29 L1,27 L-2,22 L-9,19 L-9,10 L-6,4 Z " transform="translate(592,332)" style="fill: #EBE37D;"/><path d="M0,0 L15,2 L22,4 L21,15 L20,20 L12,19 L-1,15 Z " transform="translate(390,315)" style="fill: #F2F1B9;"/><path d="M0,0 L1,0 L0,9 L-4,18 L-11,29 L-19,36 L-24,36 L-27,34 L-37,47 L-44,54 L-53,60 L-62,61 L-65,57 L-77,67 L-90,77 L-99,85 L-104,91 L-106,89 L-94,77 L-83,68 L-70,58 L-62,49 L-57,39 L-55,39 L-56,44 L-61,52 L-61,58 L-54,57 L-47,53 L-35,41 L-25,25 L-23,19 L-21,19 L-22,24 L-24,28 L-23,33 L-18,32 L-15,31 L-13,27 L-7,18 L-2,7 Z " transform="translate(508,433)" style="fill: #4C4C4C;"/><path d="M0,0 L1,2 L3,2 L0,12 L-10,32 L-16,42 L-24,42 L-22,37 L-6,6 L-4,2 Z " transform="translate(628,558)" style="fill: #525251;"/><path d="M0,0 L13,0 L19,4 L21,6 L21,17 L17,28 L13,31 L8,31 L10,26 L11,24 L11,12 L7,6 L-1,2 Z " transform="translate(617,365)" style="fill: #EAE37F;"/><path d="M0,0 L1,0 L2,15 L7,15 L7,9 L9,9 L9,29 L4,48 L0,57 L-2,62 L-4,61 L-1,51 L3,40 L6,26 L7,17 L-4,17 L-32,14 L-62,11 L-61,8 L-53,8 L-38,10 L-5,14 L0,15 Z " transform="translate(408,387)" style="fill: #434549;"/><path d="M0,0 L2,2 L1,9 L11,19 L21,26 L37,34 L44,36 L46,24 L47,20 L40,20 L40,19 L48,19 L54,11 L63,0 L64,2 L58,10 L51,19 L46,37 L71,37 L71,39 L67,40 L49,40 L36,37 L20,29 L12,23 L2,14 L-6,4 L-6,2 L-4,2 L-1,5 Z " transform="translate(549,424)" style="fill: #4B4B4C;"/><path d="M0,0 L24,0 L45,3 L66,8 L75,11 L85,11 L94,9 L98,10 L96,10 L96,12 L86,14 L80,14 L78,42 L76,46 L69,49 L57,49 L57,48 L67,47 L73,44 L75,44 L76,40 L78,14 L62,10 L40,5 L27,3 L0,1 Z " transform="translate(360,281)" style="fill: #2E3339;"/><path d="M0,0 L8,0 L15,4 L15,13 L11,17 L9,17 L6,14 L-2,14 L-5,10 L-4,4 Z " transform="translate(385,39)" style="fill: #D4DADD;"/><path d="M0,0 L16,0 L22,4 L24,6 L24,9 L-5,9 L-4,4 Z " transform="translate(378,105)" style="fill: #CAD1D5;"/><path d="M0,0 L1,0 L0,24 L-2,40 L-3,56 L-5,72 L-5,83 L-4,86 L-6,87 L-14,71 L-16,61 L-16,56 L-14,56 L-11,71 L-9,75 L-6,54 L-4,32 L-1,4 Z " transform="translate(298,304)" style="fill: #434547;"/><path d="M0,0 L1,0 L4,18 L8,25 L10,26 L10,4 L12,4 L15,17 L23,34 L32,47 L43,59 L47,63 L43,62 L39,59 L39,57 L36,56 L25,42 L17,29 L15,22 L13,22 L12,27 L7,28 L2,20 L0,13 L-1,1 Z " transform="translate(203,403)" style="fill: #424242;"/><path d="M0,0 L2,0 L2,16 L-1,40 L-4,54 L-8,56 L-10,54 L-11,50 L-13,76 L-15,76 L-15,65 L-13,42 L-11,42 L-8,50 L-8,54 L-6,54 L-2,24 L-1,7 Z " transform="translate(235,524)" style="fill: #3E3E3E;"/><path d="M0,0 L3,0 L2,15 L-4,14 L-12,10 L-16,4 L-16,2 L-14,1 Z " transform="translate(328,351)" style="fill: #F1F2BA;"/><path d="M0,0 L1,0 L1,6 L6,6 L6,7 L1,7 L0,20 L-1,28 L4,28 L4,29 L-2,29 L-3,42 L-4,42 L-4,33 L-3,29 L-29,29 L-29,35 L-30,35 L-30,21 L-28,6 L-1,5 Z M-27,7 L-28,14 L-28,27 L-3,27 L-1,7 Z " transform="translate(362,321)" style="fill: #434026;"/><path d="M0,0 L1,0 L3,15 L9,21 L13,23 L13,25 L5,26 L-1,23 L-6,14 L-6,7 Z " transform="translate(561,366)" style="fill: #B2B9C2;"/><path d="M0,0 L2,1 L0,4 L-5,7 L-7,7 L-7,9 L-9,9 L-11,14 L-15,24 L-15,34 L-12,42 L-7,47 L-2,50 L20,56 L26,57 L23,59 L15,58 L-5,52 L-13,45 L-18,35 L-18,23 L-14,13 L-5,3 Z " transform="translate(370,210)" style="fill: #3E3F31;"/><path d="M0,0 L1,0 L0,14 L-13,16 L-18,16 L-16,11 L-8,4 Z " transform="translate(334,313)" style="fill: #EAEAB7;"/><path d="M0,0 L4,1 L12,10 L14,11 L14,13 L18,15 L27,20 L41,24 L47,25 L69,26 L69,24 L71,25 L67,31 L66,29 L46,28 L35,26 L21,20 L9,11 L2,3 L2,1 Z " transform="translate(551,387)" style="fill: #373E45;"/><path d="M0,0 L1,0 L1,8 L-5,17 L-14,21 L-9,25 L6,26 L6,28 L16,27 L16,29 L3,29 L-9,28 L-15,24 L-17,20 L-22,18 L-24,14 L-30,14 L-30,13 L-24,12 L-18,17 L-9,16 L-4,11 Z " transform="translate(607,375)" style="fill: #2C3137;"/><path d="M0,0 L0,3 L-10,17 L-12,21 L-11,29 L-8,52 L-8,77 L-9,77 L-11,48 L-15,23 L-15,19 L-13,19 L-11,14 L-3,3 Z " transform="translate(402,523)" style="fill: #383838;"/><path d="M0,0 L1,0 L1,8 L-3,37 L-3,45 L0,49 L0,63 L-1,63 L-3,48 L-16,46 L-18,44 L-10,44 L-6,45 L-5,29 L-4,25 L-6,24 L-3,24 L-2,13 Z " transform="translate(410,333)" style="fill: #34352B;"/><path d="M0,0 L5,2 L10,7 L12,10 L12,22 L8,29 L15,27 L20,18 L21,21 L16,29 L9,32 L8,30 L5,30 L7,26 L9,23 L9,11 L5,5 L2,3 L-7,2 L-7,1 Z " transform="translate(617,367)" style="fill: #3C361F;"/><path d="M0,0 L9,0 L41,3 L59,6 L59,7 L49,7 L12,3 L2,1 L1,3 Z " transform="translate(293,390)" style="fill: #393F45;"/><path d="M0,0 L2,3 L7,15 L12,20 L19,24 L28,26 L46,27 L46,28 L26,29 L11,23 L4,15 L0,7 L-1,1 Z " transform="translate(327,253)" style="fill: #383D43;"/><path d="M0,0 L2,1 L1,5 L-1,5 L-12,14 L-25,24 L-34,32 L-39,38 L-41,36 L-29,24 L-18,15 L-5,5 Z " transform="translate(443,486)" style="fill: #4A4A4A;"/><path d="M0,0 L4,1 L17,13 L27,23 L36,36 L35,38 L22,22 L15,14 L7,7 L0,1 Z " transform="translate(328,503)" style="fill: #565656;"/><path d="M0,0 L9,1 L22,3 L24,4 L24,6 L10,4 L10,12 L24,12 L24,13 L9,14 L9,20 L7,17 L9,3 L2,2 Z " transform="translate(403,316)" style="fill: #2D2F25;"/><path d="M0,0 L9,0 L36,4 L44,4 L48,3 L45,7 L33,7 L12,3 L0,1 Z " transform="translate(402,271)" style="fill: #4F4F42;"/><path d="M0,0 L8,0 L23,2 L38,4 L34,6 L7,4 L-1,3 Z " transform="translate(347,395)" style="fill: #474B50;"/><path d="M0,0 L2,1 L-1,7 L-1,16 L6,19 L8,21 L8,24 L13,26 L14,28 L9,27 L4,23 L4,21 L0,19 L-10,19 L-14,20 L-9,15 L-9,17 L-3,17 L-4,12 L-6,11 L-4,10 L-1,1 Z " transform="translate(585,335)" style="fill: #2D2913;"/><path d="M0,0 L1,0 L3,18 L10,40 L9,43 L7,41 L1,20 L-1,13 L-1,1 Z " transform="translate(485,515)" style="fill: #474747;"/><path d="M0,0 L9,5 L13,6 L11,12 L6,13 L3,9 L3,7 L-1,5 L-1,2 Z " transform="translate(598,356)" style="fill: #E2DD82;"/><path d="M0,0 L2,0 L12,14 L21,24 L19,26 L12,18 L10,20 L3,19 L1,16 L5,17 L9,18 L7,11 L0,2 Z " transform="translate(248,450)" style="fill: #4F4F4F;"/><path d="M0,0 L2,0 L2,16 L0,35 L-3,36 L-2,24 L-1,7 Z " transform="translate(235,524)" style="fill: #666666;"/><path d="M0,0 L1,3 L-4,13 L-15,28 L-19,32 L-17,27 L-7,13 L-18,11 L-18,10 L-4,10 L-3,5 Z " transform="translate(404,448)" style="fill: #35393D;"/><path d="M0,0 L9,0 L9,8 L0,8 Z " transform="translate(441,246)" style="fill: #2E2E22;"/><path d="M0,0 L2,2 L1,9 L11,19 L16,24 L12,23 L2,14 L-6,4 L-6,2 L-4,2 L-1,5 Z " transform="translate(549,424)" style="fill: #3D4346;"/><path d="M0,0 L2,2 L8,20 L11,30 L8,31 L2,10 L-1,1 Z " transform="translate(378,512)" style="fill: #4F4F4F;"/><path d="M0,0 L2,1 L1,5 L-6,11 L-14,14 L-14,12 L-16,11 L-6,6 L-2,1 Z " transform="translate(491,268)" style="fill: #C4C5C6;"/><path d="M0,0 L1,0 L1,13 L0,24 L-2,28 L-9,31 L-21,31 L-21,30 L-11,29 L-5,26 L-3,26 L-2,22 Z " transform="translate(438,299)" style="fill: #25282B;"/><path d="M0,0 L8,0 L8,8 L0,8 Z " transform="translate(380,236)" style="fill: #242317;"/><path d="M0,0 L16,4 L30,7 L27,9 L19,8 L-1,2 Z " transform="translate(366,260)" style="fill: #4B4C3D;"/><path d="M0,0 L1,2 L0,6 L29,6 L30,2 L31,8 L-5,8 L-2,7 L-1,1 Z " transform="translate(373,108)" style="fill: #181D21;"/><path d="M0,0 L7,1 L6,11 L4,18 L3,33 L2,33 L1,23 L3,9 L3,4 Z " transform="translate(510,439)" style="fill: #323232;"/><path d="M0,0 L1,4 L28,3 L34,4 L34,5 L28,5 L27,18 L26,18 L26,9 L27,5 L1,5 L1,11 L0,11 Z " transform="translate(332,345)" style="fill: #272408;"/><path d="M0,0 L6,1 L6,2 L-1,4 L-4,10 L-5,14 L-5,21 L-4,26 L-6,26 L-8,21 L-8,13 L-3,3 Z " transform="translate(585,358)" style="fill: #403D26;"/><path d="M0,0 L24,1 L24,2 L16,3 L1,3 L-10,2 L-10,1 Z " transform="translate(370,456)" style="fill: #595F63;"/><path d="M0,0 L2,1 L-2,7 L-3,5 L-23,4 L-23,2 L0,2 Z " transform="translate(620,411)" style="fill: #353A3F;"/><path d="M0,0 L5,1 L9,3 L19,5 L29,6 L28,9 L28,7 L15,7 L1,3 L-1,1 Z " transform="translate(569,436)" style="fill: #262F36;"/><path d="M0,0 L10,0 L10,1 L-5,3 L-1,10 L4,15 L-1,13 L-6,7 L-7,1 Z " transform="translate(317,350)" style="fill: #373722;"/><path d="M0,0 L2,4 L4,7 L12,7 L15,9 L15,11 L19,10 L18,12 L16,12 L16,18 L15,18 L13,11 L7,9 L6,13 L5,10 L1,8 L0,6 Z " transform="translate(379,45)" style="fill: #33353B;"/><path d="M0,0 L2,0 L1,4 L-6,20 L-9,23 L-13,21 L-9,19 L-5,10 Z " transform="translate(118,543)" style="fill: #3F3F3F;"/><path d="M0,0 L1,0 L0,9 L-4,18 L-10,27 L-12,28 L-10,23 L-2,7 Z " transform="translate(508,433)" style="fill: #454545;"/><path d="M0,0 L2,1 L1,5 L-1,5 L-12,14 L-18,18 L-18,15 L-5,5 Z " transform="translate(443,486)" style="fill: #515151;"/><path d="M0,0 L2,4 L2,6 L-7,7 L-24,5 L-24,4 L-19,3 L-11,3 L0,5 Z " transform="translate(387,324)" style="fill: #626140;"/><path d="M0,0 L2,0 L6,8 L6,10 L10,12 L11,14 L9,16 L1,7 Z " transform="translate(552,380)" style="fill: #A0A6AC;"/><path d="M0,0 L5,4 L7,7 L11,9 L19,10 L19,11 L11,12 L12,15 L10,15 L2,5 L0,3 Z " transform="translate(489,337)" style="fill: #373736;"/><path d="M0,0 L5,1 L18,8 L19,11 L13,9 L0,1 Z " transform="translate(563,448)" style="fill: #474A4D;"/><path d="M0,0 L5,2 L10,7 L12,10 L11,19 L10,19 L8,9 L4,4 L2,3 L-7,2 L-7,1 Z " transform="translate(617,367)" style="fill: #4A4B3A;"/><path d="M0,0 L2,0 L6,12 L9,17 L6,17 L5,19 L0,3 Z " transform="translate(502,384)" style="fill: #505050;"/><path d="M0,0 L1,2 L-5,13 L-8,19 L-9,17 L-11,17 L-9,13 L-2,3 Z " transform="translate(216,332)" style="fill: #3A3A3A;"/><path d="M0,0 L9,0 L10,5 L8,8 L8,1 L2,4 L-3,10 L-5,10 L-3,5 Z " transform="translate(619,545)" style="fill: #393938;"/><path d="M0,0 L5,5 L13,18 L12,21 L5,10 L0,2 Z " transform="translate(357,476)" style="fill: #292C2F;"/><path d="M0,0 L4,1 L12,10 L14,11 L14,13 L17,14 L15,16 L6,8 L2,3 L2,1 Z " transform="translate(551,387)" style="fill: #3C4347;"/><path d="M0,0 L1,0 L3,9 L9,19 L4,17 L0,9 L0,7 L-2,7 L-1,2 Z " transform="translate(554,373)" style="fill: #262B32;"/><path d="M0,0 L1,4 L0,10 L-10,9 L-14,5 L-5,7 L-2,8 L-1,2 Z " transform="translate(595,452)" style="fill: #32353A;"/><path d="M0,0 L11,1 L16,3 L21,4 L18,6 L-1,2 Z " transform="translate(386,352)" style="fill: #595637;"/><path d="M0,0 L8,0 L9,11 L7,17 L6,17 L6,9 L7,2 L-2,3 Z " transform="translate(324,349)" style="fill: #777252;"/><path d="M0,0 L2,0 L2,13 L4,17 L3,20 L-1,13 L-1,3 Z " transform="translate(621,331)" style="fill: #353B41;"/><path d="M0,0 L1,4 L-1,20 L-3,19 L-2,3 Z " transform="translate(362,329)" style="fill: #595637;"/><path d="M0,0 L0,3 L-10,17 L-12,19 L-13,17 L-3,3 Z " transform="translate(402,523)" style="fill: #434343;"/><path d="M0,0 L2,0 L1,5 L-4,13 L-4,19 L-3,21 L-6,20 L-7,13 L-1,2 Z " transform="translate(451,472)" style="fill: #343434;"/><path d="M0,0 L2,0 L7,14 L7,17 L4,16 L0,3 Z " transform="translate(490,583)" style="fill: #555555;"/><path d="M0,0 L2,1 L2,4 L16,4 L16,5 L1,6 L1,12 L-1,9 Z " transform="translate(411,324)" style="fill: #4D4D4C;"/><path d="M0,0 L2,0 L3,3 L0,6 L-10,6 L-11,2 L-2,3 L1,3 Z " transform="translate(573,388)" style="fill: #444A51;"/><path d="M0,0 L4,1 L15,11 L13,13 L5,5 Z " transform="translate(328,503)" style="fill: #5C5C5C;"/><path d="M0,0 L1,0 L2,8 L1,24 L0,24 L-1,16 L-1,7 Z " transform="translate(294,336)" style="fill: #606366;"/><path d="M0,0 L3,1 L-2,6 L-2,7 L-7,7 L-7,5 L-11,4 L-2,1 Z " transform="translate(620,396)" style="fill: #4C5057;"/><path d="M0,0 L1,0 L1,9 L-1,20 L-3,19 L-2,10 Z " transform="translate(233,555)" style="fill: #424242;"/><path d="M0,0 L4,2 L11,8 L10,12 L0,2 Z " transform="translate(297,480)" style="fill: #4A4A4A;"/><path d="M0,0 L3,1 L1,1 L7,12 L5,14 L-2,3 L-1,1 Z " transform="translate(295,391)" style="fill: #515354;"/><path d="M0,0 L5,2 L16,10 L13,11 L0,1 Z " transform="translate(313,492)" style="fill: #525252;"/><path d="M0,0 L0,3 L-9,12 L-10,10 L-12,9 L-2,2 Z " transform="translate(169,438)" style="fill: #2E2E2E;"/><path d="M0,0 L20,1 L20,2 L0,3 L-3,1 Z " transform="translate(353,279)" style="fill: #585C64;"/><path d="M0,0 L1,0 L2,16 L0,20 L-1,15 Z " transform="translate(499,546)" style="fill: #5A5A5A;"/><path d="M0,0 L4,1 L15,7 L14,9 L9,7 L0,1 Z " transform="translate(284,488)" style="fill: #4B4B4B;"/><path d="M0,0 L10,0 L9,7 L7,11 L6,5 L7,1 L0,1 Z " transform="translate(589,443)" style="fill: #565C61;"/><path d="M0,0 L8,0 L12,2 L13,4 L-1,3 Z " transform="translate(347,395)" style="fill: #767C81;"/><path d="M0,0 L11,1 L12,3 L2,3 L-4,2 Z " transform="translate(360,371)" style="fill: #5A594B;"/><path d="M0,0 L1,4 L-1,9 L1,9 L-1,13 L-2,15 L-4,15 L-2,6 Z " transform="translate(636,488)" style="fill: #373737;"/><path d="M0,0 L12,1 L11,3 L-6,2 L-6,1 Z " transform="translate(366,349)" style="fill: #5A573D;"/><path d="M0,0 L2,0 L3,9 L2,18 L1,18 Z " transform="translate(213,407)" style="fill: #6F6F6F;"/><path d="M0,0 L1,0 L2,7 L0,7 L0,25 L-1,25 L-1,5 Z " transform="translate(551,380)" style="fill: #1E2020;"/><path d="M0,0 L2,2 L1,12 L-1,15 L-4,14 L-1,9 Z " transform="translate(215,416)" style="fill: #323232;"/><path d="M0,0 L7,5 L11,7 L6,8 L1,4 L1,2 L-5,2 L-5,1 Z " transform="translate(582,387)" style="fill: #3A3E46;"/><path d="M0,0 L1,0 L1,9 L0,16 L-1,16 L-1,9 L-8,8 L-8,7 L0,7 Z " transform="translate(385,344)" style="fill: #2C2A13;"/><path d="M0,0 L7,1 L13,2 L15,5 L6,4 L3,3 L3,1 Z " transform="translate(416,205)" style="fill: #54585F;"/><path d="M0,0 L5,2 L13,9 L12,11 L10,10 L10,8 L8,8 L8,6 L3,4 Z " transform="translate(320,427)" style="fill: #454B4C;"/><path d="M0,0 L2,2 L6,12 L3,12 L1,5 L-1,5 Z " transform="translate(217,420)" style="fill: #444444;"/><path d="M0,0 L10,2 L10,9 L8,8 L9,4 L2,3 Z " transform="translate(602,358)" style="fill: #454022;"/><path d="M0,0 L2,4 L7,12 L7,15 L2,10 L0,6 Z " transform="translate(595,344)" style="fill: #34341B;"/><path d="M0,0 L12,1 L8,3 L-3,2 Z " transform="translate(384,375)" style="fill: #5D604D;"/><path d="M0,0 L2,1 L-1,7 L-2,14 L-4,15 L-4,12 L-6,11 L-4,10 L-1,1 Z " transform="translate(585,335)" style="fill: #474022;"/><path d="M0,0 L12,2 L9,4 L1,3 L-3,1 Z " transform="translate(384,265)" style="fill: #595A4D;"/><path d="M0,0 L5,1 L12,4 L12,5 L3,4 L-1,1 Z " transform="translate(569,436)" style="fill: #29323A;"/><path d="M0,0 L4,0 L4,2 L14,1 L14,3 L1,3 Z " transform="translate(609,401)" style="fill: #25282C;"/><path d="M0,0 L1,3 L1,14 L-1,11 L-2,1 Z " transform="translate(389,541)" style="fill: #303030;"/><path d="M0,0 L3,1 L0,10 L-3,10 Z " transform="translate(407,438)" style="fill: #4D5154;"/><path d="M0,0 L1,0 L1,8 L-2,13 L-3,9 Z " transform="translate(607,375)" style="fill: #343C43;"/><path d="M0,0 L2,1 L-1,4 L-8,4 L-12,2 L-2,1 Z " transform="translate(448,274)" style="fill: #363729;"/><path d="M0,0 L11,1 L7,3 L-3,2 Z " transform="translate(391,201)" style="fill: #565B61;"/><path d="M0,0 L2,3 L3,8 L5,8 L4,13 L2,11 L0,5 Z " transform="translate(494,557)" style="fill: #313131;"/><path d="M0,0 L2,2 L4,8 L3,12 L-1,3 Z " transform="translate(378,512)" style="fill: #4A4A4A;"/><path d="M0,0 L4,2 L9,8 L6,8 L0,1 Z " transform="translate(260,467)" style="fill: #595959;"/><path d="M0,0 L2,4 L1,6 L-6,5 L-8,2 L-4,3 L0,4 Z " transform="translate(257,464)" style="fill: #5B5B5B;"/><path d="M0,0 L9,1 L8,3 L0,3 L-3,1 Z " transform="translate(589,411)" style="fill: #50565D;"/><path d="M0,0 L1,0 L3,12 L1,14 L-1,3 Z " transform="translate(498,567)" style="fill: #505050;"/><path d="M0,0 L2,0 L1,5 L-2,13 L-4,12 Z " transform="translate(485,452)" style="fill: #2F2F2F;"/><path d="M0,0 L2,0 L2,2 L-4,4 L-4,6 L-6,6 L-5,1 Z " transform="translate(618,361)" style="fill: #D3CCC8;"/><path d="M0,0 L2,1 L0,5 L-5,9 L-7,8 Z " transform="translate(560,356)" style="fill: #3B3B3A;"/><path d="M0,0 L2,2 L1,12 L-1,10 Z " transform="translate(406,358)" style="fill: #575849;"/><path d="M0,0 L9,1 L11,2 L11,4 L2,3 Z " transform="translate(416,318)" style="fill: #495059;"/><path d="M0,0 L1,0 L2,10 L0,12 L-1,3 Z " transform="translate(390,552)" style="fill: #5F5F5F;"/><path d="M0,0 L2,0 L0,4 L-1,5 L-6,5 L-2,1 Z " transform="translate(623,397)" style="fill: #A8A9AE;"/><path d="M0,0 L2,2 L-8,7 L-9,5 Z " transform="translate(332,312)" style="fill: #3E4034;"/><path d="M0,0 L2,2 L2,6 L-6,6 L-5,4 L0,4 Z " transform="translate(402,110)" style="fill: #3B3C3F;"/><path d="M0,0 L1,3 L-2,9 L-7,8 L-2,3 Z " transform="translate(112,557)" style="fill: #303030;"/><path d="M0,0 L2,0 L8,8 L5,8 L0,2 Z " transform="translate(330,447)" style="fill: #585757;"/><path d="M0,0 L1,0 L2,10 L0,9 L0,7 L-2,7 L-1,2 Z " transform="translate(554,373)" style="fill: #27292B;"/><path d="M0,0 L2,1 Z M-3,1 L0,2 Z M-7,2 L-3,3 L-1,5 L-8,5 Z " transform="translate(628,358)" style="fill: #85806F;"/><path d="M0,0 L10,1 L8,3 L-1,2 Z " transform="translate(395,283)" style="fill: #444950;"/><path d="M0,0 L2,3 L-1,11 L-3,7 Z " transform="translate(356,223)" style="fill: #404139;"/><path d="M0,0 L2,3 L3,9 L1,11 L-1,2 Z " transform="translate(382,522)" style="fill: #5E5E5E;"/><path d="M0,0 L5,1 L5,3 L12,3 L12,4 L4,4 L0,2 Z " transform="translate(298,496)" style="fill: #676767;"/><path d="M0,0 L1,2 L-2,7 L-7,6 L-6,3 L-3,4 Z " transform="translate(376,493)" style="fill: #48484A;"/><path d="M0,0 L2,0 L1,3 L-8,4 L-6,2 Z " transform="translate(454,490)" style="fill: #5B5B5B;"/><path d="M0,0 L4,1 L2,1 L2,3 L-7,3 L-4,1 Z " transform="translate(454,290)" style="fill: #25272A;"/><path d="M0,0 L1,2 L2,8 L-5,8 L-2,7 L-1,1 Z " transform="translate(373,108)" style="fill: #313236;"/><path d="M0,0 L4,2 L7,6 L4,6 L0,2 Z " transform="translate(344,461)" style="fill: #47494B;"/><path d="M0,0 L2,1 L1,6 L0,11 L-1,11 L-1,3 Z " transform="translate(331,355)" style="fill: #6A654B;"/><path d="M0,0 L5,1 L1,3 L-7,2 L-7,1 Z " transform="translate(445,292)" style="fill: #5C6164;"/><path d="M0,0 L2,2 L3,8 L1,9 L-1,1 Z " transform="translate(488,536)" style="fill: #545454;"/><path d="M0,0 L2,2 L1,9 L-1,8 Z " transform="translate(514,444)" style="fill: #5F5F5F;"/><path d="M0,0 L4,1 L9,4 L6,5 L0,1 Z " transform="translate(560,432)" style="fill: #282E37;"/><path d="M0,0 L4,1 L8,7 L6,8 L2,3 L2,1 Z " transform="translate(551,387)" style="fill: #363A40;"/><path d="M0,0 L2,0 L0,4 L-3,7 L-5,6 Z " transform="translate(583,329)" style="fill: #4A4A23;"/><path d="M0,0 L5,1 L3,5 L0,6 L-2,4 L0,4 Z " transform="translate(456,289)" style="fill: #696769;"/><path d="M0,0 L2,1 L1,5 L-1,5 L-4,4 Z " transform="translate(443,486)" style="fill: #696969;"/><path d="M0,0 L4,1 L5,6 L0,2 Z " transform="translate(303,486)" style="fill: #262626;"/><path d="M0,0 L2,4 L2,9 L-1,8 Z " transform="translate(551,417)" style="fill: #191F20;"/><path d="M0,0 L2,0 L3,6 L1,7 Z " transform="translate(552,380)" style="fill: #9FA0A3;"/><path d="M0,0 L2,0 L0,6 L-3,7 L-3,4 L-1,4 Z " transform="translate(436,321)" style="fill: #3A3F41;"/><path d="M0,0 L8,0 L8,1 L2,2 L0,6 L0,2 L-2,1 Z " transform="translate(336,310)" style="fill: #535544;"/><path d="M0,0 L4,1 L8,4 L6,5 L0,1 Z " transform="translate(284,488)" style="fill: #444444;"/><path d="M0,0 L1,3 L4,6 L1,6 L-2,5 Z " transform="translate(481,461)" style="fill: #5D5D5D;"/><path d="M0,0 L5,2 L7,5 L3,4 L0,2 Z " transform="translate(558,443)" style="fill: #373B3F;"/><path d="M0,0 L2,3 L5,8 L2,8 L0,5 Z " transform="translate(207,422)" style="fill: #4B4B4B;"/><path d="M0,0 L1,0 L1,5 L-3,7 L-1,1 Z " transform="translate(521,425)" style="fill: #6B6B6B;"/><path d="M0,0 L2,4 L6,6 L-3,5 L0,4 Z " transform="translate(453,208)" style="fill: #282B2E;"/><path d="M0,0 L2,2 L-3,6 L-3,3 Z " transform="translate(471,476)" style="fill: #505050;"/><path d="M0,0 L5,3 L5,6 L0,2 Z " transform="translate(590,395)" style="fill: #3D4249;"/><path d="M0,0 L2,0 L3,4 L-2,4 Z " transform="translate(579,347)" style="fill: #B4B3BB;"/><path d="M0,0 L6,5 L3,6 L0,2 Z " transform="translate(237,454)" style="fill: #424242;"/><path d="M0,0 L2,2 L1,8 L-1,5 Z " transform="translate(411,427)" style="fill: #565B5D;"/><path d="M0,0 L2,0 L3,7 L0,3 Z " transform="translate(502,384)" style="fill: #525252;"/><path d="M0,0 L5,3 L3,5 L-2,1 Z " transform="translate(587,352)" style="fill: #524822;"/><path d="M0,0 L5,5 L2,5 L0,3 Z " transform="translate(489,337)" style="fill: #525252;"/><path d="M0,0 L5,1 L5,3 L-2,2 Z " transform="translate(424,289)" style="fill: #44474C;"/><path d="M0,0 L2,3 L2,6 L-1,5 Z " transform="translate(495,594)" style="fill: #676767;"/><path d="M0,0 L4,4 L2,7 L0,3 Z " transform="translate(362,483)" style="fill: #383D3F;"/><path d="M0,0 L4,0 L2,4 L1,2 L-1,1 Z " transform="translate(158,446)" style="fill: #232322;"/><path d="M0,0 L3,1 L5,6 L3,6 L0,2 Z " transform="translate(496,346)" style="fill: #2C2C2A;"/><path d="M0,0 L4,3 L4,5 L1,5 Z " transform="translate(257,462)" style="fill: #393939;"/><path d="M0,0 L5,1 L1,3 L-1,1 Z " transform="translate(569,436)" style="fill: #495059;"/><path d="M0,0 L4,2 L1,3 L0,5 Z " transform="translate(507,398)" style="fill: #282727;"/><path d="M0,0 L3,4 L1,6 L-1,1 Z " transform="translate(556,382)" style="fill: #343940;"/><path d="M0,0 L3,4 L1,6 L-1,2 Z " transform="translate(564,377)" style="fill: #45452C;"/><path d="M0,0 L2,0 L1,4 L-1,6 Z " transform="translate(313,328)" style="fill: #2B2C26;"/><path d="M0,0 L2,3 L1,6 L-1,2 Z " transform="translate(493,552)" style="fill: #595959;"/><path d="M0,0 L3,1 L-1,4 L-1,1 Z " transform="translate(414,510)" style="fill: #636363;"/><path d="M0,0 L2,3 L-1,6 L-2,4 Z " transform="translate(378,488)" style="fill: #58595F;"/><path d="M0,0 L2,0 L1,5 L-1,4 Z " transform="translate(485,452)" style="fill: #5F5F5F;"/><path d="M0,0 L2,4 L-1,5 Z " transform="translate(217,420)" style="fill: #646464;"/><path d="M0,0 L4,1 L2,4 Z " transform="translate(559,392)" style="fill: #A7ACB9;"/><path d="M0,0 L4,0 L3,3 L0,2 Z " transform="translate(607,362)" style="fill: #E8DEA4;"/><path d="M0,0 L0,3 L-3,5 L-2,1 Z " transform="translate(231,290)" style="fill: #53533A;"/><path d="M0,0 L2,0 L1,5 L-1,2 Z " transform="translate(451,472)" style="fill: #797979;"/><path d="M0,0 L5,1 L3,3 Z " transform="translate(563,448)" style="fill: #505457;"/><path d="M0,0 L2,4 L-1,4 Z " transform="translate(405,444)" style="fill: #53585A;"/><path d="M0,0 L5,2 L3,4 Z " transform="translate(320,427)" style="fill: #4C5255;"/><path d="M0,0 L2,3 L0,5 L-1,2 Z " transform="translate(113,553)" style="fill: #5A5A5A;"/><path d="M0,0 L4,1 L4,3 L0,1 Z " transform="translate(249,466)" style="fill: #656565;"/><path d="M0,0 L3,1 L-1,3 Z " transform="translate(152,456)" style="fill: #999997;"/><path d="M0,0 L2,2 L0,4 L-2,1 Z " transform="translate(156,451)" style="fill: #A2A2A0;"/><path d="M0,0 L1,3 L-1,4 L-3,2 Z " transform="translate(163,443)" style="fill: #4F4F4F;"/><path d="M0,0 L3,1 L0,3 L-2,1 Z " transform="translate(620,396)" style="fill: #494E54;"/><path d="M0,0 L1,4 L-2,4 Z " transform="translate(603,386)" style="fill: #394147;"/><path d="M0,0 L2,2 L1,5 L-1,2 Z " transform="translate(643,330)" style="fill: #1D1D1D;"/><path d="M0,0 L3,1 L-1,3 Z " transform="translate(421,233)" style="fill: #B7B897;"/><path d="M0,0 L2,3 L0,5 L-1,2 Z " transform="translate(356,223)" style="fill: #4E513B;"/><path d="M0,0 L2,0 L1,3 L-2,1 Z " transform="translate(454,490)" style="fill: #707070;"/><path d="M0,0 L3,3 L0,3 Z " transform="translate(355,473)" style="fill: #373A3D;"/><path d="M0,0 L3,3 L0,3 Z " transform="translate(342,447)" style="fill: #494A4C;"/><path d="M0,0 L2,2 L-2,3 Z " transform="translate(602,436)" style="fill: #4F5357;"/><path d="M0,0 L3,3 L0,3 Z " transform="translate(301,403)" style="fill: #414142;"/><path d="M0,0 L2,3 L-1,4 Z " transform="translate(311,332)" style="fill: #4E5241;"/><path d="M0,0 L2,2 L0,4 Z " transform="translate(498,272)" style="fill: #282828;"/><path d="M0,0 L2,0 L1,3 L-1,1 Z " transform="translate(433,495)" style="fill: #606060;"/><path d="M0,0 L3,1 L1,3 Z " transform="translate(348,465)" style="fill: #3E3E3E;"/><path d="M0,0 L3,1 L1,3 Z " transform="translate(589,354)" style="fill: #494018;"/><path d="M0,0 L2,0 L1,3 L-1,1 Z " transform="translate(337,213)" style="fill: #40454B;"/><path d="M0,0 L2,2 L-1,2 Z " transform="translate(398,527)" style="fill: #676767;"/><path d="M0,0 L2,2 L-1,2 Z " transform="translate(403,521)" style="fill: #656565;"/><path d="M0,0 L2,2 L-1,2 Z " transform="translate(425,501)" style="fill: #6D6D6D;"/><path d="M0,0 L2,2 L-1,2 Z " transform="translate(468,479)" style="fill: #5B5B5B;"/><path d="M0,0 L2,2 L-1,2 Z " transform="translate(491,464)" style="fill: #626262;"/><path d="M0,0 L2,2 L-1,2 Z " transform="translate(608,429)" style="fill: #5D5E64;"/><path d="M0,0 L2,2 L-1,2 Z " transform="translate(623,370)" style="fill: #544E2E;"/><path d="M0,0 L2,2 L-1,2 Z " transform="translate(364,214)" style="fill: #545641;"/></svg>
